<svg width="24" height="24" viewBox="0 0 24 24" fill="none" xmlns="http://www.w3.org/2000/svg">
<path d="M6.16158 16.3296C5.84517 16.646 5.8301 17.2111 6.16911 17.5425C6.50058 17.874 7.06559 17.8665 7.382 17.5501L11.9925 12.932L16.6105 17.5501C16.9345 17.874 17.4919 17.874 17.8234 17.5425C18.1473 17.2035 18.1549 16.6536 17.8234 16.3296L13.2129 11.7116L17.8234 7.10112C18.1549 6.77718 18.1549 6.2197 17.8234 5.88823C17.4844 5.56429 16.9345 5.55675 16.6105 5.88069L11.9925 10.4987L7.382 5.88069C7.06559 5.56429 6.49305 5.54922 6.16911 5.88823C5.83764 6.2197 5.84517 6.78471 6.16158 7.10112L10.7796 11.7116L6.16158 16.3296Z" fill="#333333"/>
</svg>
